# xmcd
#
# Track frame offsets:
#	150
#	14545
#	33770
#	51392
#	73427
#	96692
#	112662
#	127095
#	145575
#	160317
#	177327
#	194437
#	216490
#	237037
#	254832
#	272602
#
# Disc length: 3862 seconds
#
# Revision: 0
# Processed by: cddbd v1.5.2PL0 Copyright (c) Steve Scherf et al.
# Submitted via: audiograbber 1.83.01
#
DISCID=f90f1410
DTITLE=The Rolling Stones - A Bigger Bang [CD-R]
DYEAR=2005
DGENRE=Rock
TTITLE0=Rough Justice
TTITLE1=Let Me Down Slow
TTITLE2=It Won't Take Long
TTITLE3=Rain Fall Down
TTITLE4=Streets Of Love
TTITLE5=Back Of My Hand
TTITLE6=She Saw Me Coming
TTITLE7=Biggest Mistake
TTITLE8=This Place Is Empty
TTITLE9=Oh No Not You Again
TTITLE10=Dangerous Beauty
TTITLE11=Laugh, I Nearly Died
TTITLE12=Sweet Neo Con
TTITLE13=Look What The Cat Dragged In
TTITLE14=Driving Too Fast
TTITLE15=Infamy
EXTD=
EXTT0=
EXTT1=
EXTT2=
EXTT3=
EXTT4=
EXTT5=
EXTT6=
EXTT7=
EXTT8=
EXTT9=
EXTT10=
EXTT11=
EXTT12=
EXTT13=
EXTT14=
EXTT15=
PLAYORDER=
